<?xml version="1.0" encoding="utf-8"?>
<!-- Generator: Adobe Illustrator 28.0.0, SVG Export Plug-In . SVG Version: 6.00 Build 0)  -->
<svg version="1.1" id="Layer_1" xmlns="http://www.w3.org/2000/svg" xmlns:xlink="http://www.w3.org/1999/xlink" x="0px" y="0px"
	 viewBox="0 0 24 24" style="enable-background:new 0 0 24 24;" xml:space="preserve">
<style type="text/css">
	.st0{fill:#FFFFFF;}
</style>
<path class="st0" d="M21.2,4.9l-7.7-4.4c-1-0.5-2.1-0.5-3.1,0L8.1,1.8V8l3.1-1.8c0.5-0.3,1.1-0.3,1.5,0l3.9,2.2
	c0.5,0.3,0.8,0.8,0.8,1.3v4.5c0,0.5-0.3,1.1-0.8,1.3l-3.9,2.2V24l8.5-4.9c1-0.5,1.5-1.6,1.5-2.7V7.5C22.8,6.4,22.2,5.4,21.2,4.9
	 M6.6,14.2V2.7L2.8,4.9c-1,0.5-1.5,1.6-1.5,2.7v8.9c0,1.1,0.6,2.1,1.5,2.7l8.5,4.9v-6.2l-3.9-2.2C6.9,15.3,6.6,14.8,6.6,14.2"/>
</svg>
