<?xml version="1.0" encoding="UTF-8"?>
<svg id="Layer_1" data-name="Layer 1" xmlns="http://www.w3.org/2000/svg" viewBox="0 0 867.47 772.46">
  <defs>
    <style>
      .cls-1 {
        fill: #fff;
        stroke-width: 0px;
      }
    </style>
  </defs>
  <path class="cls-1" d="m266.94,293.69l1.72-7.95c-78.63-101.37-185.38-39.8-216.41-18.28-2.11,1.37-4.41,2.46-6.84,3.2-12.7,2.09-25.67,2.27-38.43.53l-6.97-1.11,3.72,5.97c10.91,19.52,26.86,35.76,46.19,46.98s41.36,17.04,63.73,16.8c19.81,0,39.43-3.83,57.81-11.22,67.53-33.94,91.25-35.07,95.48-34.94v.03Z"/>
  <path class="cls-1" d="m271.69,530.94c.9-1.27,21-31.27,1.06-99.7l-4.91-4.28c-19.33,3.04-37.5,11.2-52.56,23.72-15.29,12.7-26.81,29.37-33.28,48.2-.55,2.35-.55,4.78,0,7.1,7.13,28.37,8.87,51.05,4.25,55.23l-5.04,4.52,6.68,1.11c3.35.42,6.76.63,10.14.61,14.31.34,28.5-2.8,41.33-9.14,12.84-6.34,23.93-15.71,32.33-27.31v-.05Z"/>
  <path class="cls-1" d="m633.71,364.21v-2.48c94-19.62,178.78-87.05,178.78-179.01C812.48,36,667.78.24,569.24.05c-.18,0-.4-.05-.58-.05h-306.92v9.8c77.94,9.82,102.03,39.25,102.03,142.22v468.35c0,103-24.06,132.4-102.03,142.22v9.8h306.66c5.6.11,11.2.08,16.8,0h1.14c.13,0,.26-.03.4-.03,14.55-.26,29.08-1.03,43.55-2.4v.05c128.33-12.25,237.2-67.43,237.2-202.28s-113.46-187.6-233.79-203.52h.03Zm-76.78-3.62v4.23-4.23Zm-21.26-5.86c32.56,2.59,94.6,25.38,94.6,25.38,73.34,28.21,121.46,96.85,121.46,187.6s-28.5,166.31-140.72,189.05c-20.71,4.2-41.84,5.89-62.94,5.89h-72.08V9.85h79.71c11.57,0,23.14.69,34.55,2.67,68.01,11.83,112.22,55.99,112.22,172.68,0,72.31-38.96,145.89-101.97,167.97-14.08,4.54-28.76,7.03-43.55,7.34v.08"/>
  <path class="cls-1" d="m461.8,373.32c-15.9,0-31.83-.5-50.18-1.32-23.29-1.03-50.81-4.04-78.23-18.38-20.31-10.64-39.22-26.44-57.81-48.33-20.65-24.32-51.55-40.36-78.73-40.78l.16-8.95c35.97.58,67.69,23.08,85.41,43.95,17.83,21,35.87,36.1,55.15,46.19,25.88,13.55,52.16,16.37,74.48,17.38,36.92,1.64,63.91,2.06,100.78-.53l5.07-.34c31.11-2.11,104.01-7.05,125.9-27.94l6.18,6.47c-24.25,23.14-96.66,28.02-131.47,30.4l-5.04.34c-18.91,1.32-35.26,1.85-51.61,1.85h-.05Z"/>
  <path class="cls-1" d="m226.53,494.12l-8.29-3.33c24.64-61.33,92.04-94.82,97.93-97.64,8.03-5.34,154.4-98.96,360.96-.71l-3.86,8.08c-107.94-51.34-197.95-48.57-254.44-37.19-61.27,12.33-97.51,37.16-97.88,37.4l-.63.37c-.69.32-69.86,33.57-93.76,93.05l-.03-.03Z"/>
</svg>